<svg width="24" height="31" viewBox="0 0 24 31" fill="none" xmlns="http://www.w3.org/2000/svg" class="" style="">
    <path d="M12.4331 25.6215C13.3774 26.3223 14.8999 27.6159 14.8633 28.658C14.8633 28.7059 14.856 28.7538 14.856 28.8077C14.7243 29.9936 13.4799 30.6703 11.9939 30.6643C10.1639 30.6583 9.07326 29.6582 9.1611 28.5202C9.2343 27.55 10.6617 26.3223 11.5328 25.6695C11.7011 25.5437 11.7304 25.5078 11.9427 25.4538C12.1916 25.4538 12.2282 25.4718 12.4331 25.6215ZM22.2492 4.031C21.056 2.49181 19.4237 1.59944 17.6157 0.910703C15.7491 0.269874 13.619 -0.011612 12.0086 0.000366119C8.78046 0.000366119 6.79675 0.790921 6.07208 1.03647C2.14858 2.70742 -0.105966 5.22282 0.00383303 9.49901C0.52355 14.422 7.10419 20.0397 11.4083 23.5014C11.5328 23.5972 11.7377 23.7709 11.8622 23.8069L12.1037 23.8128C12.2574 23.7709 12.2355 23.7829 12.3599 23.6871C16.1883 20.7405 22.6591 14.955 23.7717 10.7687C24.2841 8.42098 23.9987 6.42662 22.2492 4.031ZM11.6279 21.0759C9.57834 18.0154 6.85531 13.2482 6.55519 9.75654C6.30632 6.91174 7.38967 1.8989 11.6279 1.5695V21.0759ZM22.0149 10.7807C20.8145 14.1824 16.3566 18.4467 13.3115 20.98C15.3465 17.8717 18.0841 12.9966 18.2305 9.48703C18.3476 6.73805 17.5132 3.15061 14.7169 1.61741C21.2171 2.71341 23.1715 7.49267 22.0149 10.7807Z" fill="" stroke="#B671AC" stroke-width=".5" class="nxJDHZXZ_0"></path>
<style data-made-with="vivus-instant">.nxJDHZXZ_0{stroke-dasharray:181 183;stroke-dashoffset:182;}.start .nxJDHZXZ_0{animation:nxJDHZXZ_draw 1000ms ease-out 0ms forwards;}@keyframes nxJDHZXZ_draw{100%{stroke-dashoffset:0;}}@keyframes nxJDHZXZ_fade{0%{stroke-opacity:1;}92.98245614035088%{stroke-opacity:1;}100%{stroke-opacity:0;}}</style></svg>
