<svg width="24" height="27" viewBox="0 0 24 27" fill="none" xmlns="http://www.w3.org/2000/svg" class="" style="">
    <path d="M9 10.6364C9 9.73278 8.32828 9 7.5 9H6.75C5.09297 9 3.75 10.4651 3.75 12.2727V14.7273C3.75 16.5349 5.09297 18 6.75 18H7.5C8.32828 18 9 17.2672 9 16.3636V10.6364ZM17.25 18C18.907 18 20.25 16.5349 20.25 14.7273V12.2727C20.25 10.4651 18.907 9 17.25 9H16.5C15.6717 9 15 9.73278 15 10.6364V16.3636C15 17.2672 15.6717 18 16.5 18H17.25ZM12 0C5.30531 0 0.214687 6.07653 0 13.0909V13.9091C0 14.3611 0.335625 14.7273 0.75 14.7273H1.5C1.91438 14.7273 2.25 14.3611 2.25 13.9091V13.0909C2.25 7.22608 6.62391 2.45455 12 2.45455C17.3761 2.45455 21.75 7.22608 21.75 13.0909H21.7444C21.7481 13.2152 21.75 21.5652 21.75 21.5652C21.75 22.7593 20.8627 23.7273 19.7681 23.7273H15C15 22.3716 13.9927 21.2727 12.75 21.2727H11.25C10.0073 21.2727 9 22.3716 9 23.7273C9 25.0829 10.0073 26.1818 11.25 26.1818H19.7681C22.1053 26.1818 24 24.1149 24 21.5652V13.0909C23.7853 6.07653 18.6947 0 12 0Z" fill="" stroke-width=".5" stroke="#B671AC" class="MtkQbxrb_0"></path>
<style data-made-with="vivus-instant">.MtkQbxrb_0{stroke-dasharray:179 181;stroke-dashoffset:180;}.start .MtkQbxrb_0{animation:MtkQbxrb_draw 1000ms ease-out 0ms forwards;}@keyframes MtkQbxrb_draw{100%{stroke-dashoffset:0;}}@keyframes MtkQbxrb_fade{0%{stroke-opacity:1;}92.98245614035088%{stroke-opacity:1;}100%{stroke-opacity:0;}}</style></svg>
