<svg width="24" height="28" viewBox="0 0 24 28" fill="none" xmlns="http://www.w3.org/2000/svg" style="" class="">
    <path d="M11.8128 6.68015C11.8695 6.70724 11.915 6.77226 11.9831 6.77226C12.0455 6.77226 12.142 6.75059 12.1477 6.69099C12.159 6.61514 12.0398 6.56638 11.966 6.53387C11.8695 6.49595 11.7447 6.4797 11.6539 6.52846C11.6312 6.53929 11.6085 6.56638 11.6198 6.58805C11.6368 6.65848 11.7504 6.64765 11.8128 6.68015ZM10.5698 6.77226C10.6379 6.77226 10.6833 6.70724 10.7401 6.68015C10.8025 6.64765 10.916 6.65848 10.9387 6.59347C10.9501 6.5718 10.9274 6.54471 10.9047 6.53387C10.8139 6.48511 10.689 6.50137 10.5925 6.53929C10.5187 6.5718 10.3995 6.62056 10.4109 6.69641C10.4165 6.75059 10.513 6.77768 10.5698 6.77226ZM23.1189 21.8771C22.9146 21.6604 22.8181 21.2486 22.7103 20.8098C22.6081 20.3709 22.4889 19.8996 22.1143 19.5962C22.0405 19.5366 21.9668 19.4824 21.8873 19.4391C21.8135 19.3957 21.7341 19.3578 21.6546 19.3307C22.1768 17.8516 21.9724 16.378 21.4446 15.0452C20.7976 13.4145 19.6681 11.9896 18.8054 11.0144C17.8348 9.84956 16.8926 8.74433 16.9096 7.11358C16.938 4.62681 17.1991 0.00543346 12.6074 1.56669e-05C6.7954 -0.0108199 8.2484 5.60201 8.18596 7.32487C8.08947 8.59264 7.82271 9.58951 6.90891 10.8302C5.83619 12.0492 4.32643 14.0158 3.61128 16.0692C3.27074 17.039 3.11181 18.025 3.25938 18.9569C2.89046 19.2711 2.61234 19.7533 2.3172 20.0513C2.07882 20.2842 1.7326 20.3709 1.35232 20.5009C0.972043 20.631 0.557711 20.826 0.3023 21.2865C0.183109 21.4978 0.143378 21.7254 0.143378 21.9583C0.143378 22.1696 0.177433 22.3863 0.211488 22.5976C0.279597 23.0365 0.353382 23.4482 0.256894 23.7245C-0.0382466 24.5047 -0.0779772 25.0465 0.132027 25.442C0.347707 25.8375 0.779066 26.0108 1.27286 26.1084C2.25477 26.3034 3.58858 26.2546 4.6386 26.7856C5.7624 27.349 6.90324 27.5495 7.81136 27.349C8.46975 27.2082 9.00895 26.8289 9.28139 26.2546C9.99086 26.2492 10.7741 25.9621 12.0228 25.8971C12.8685 25.8321 13.9299 26.1842 15.1501 26.1192C15.1842 26.2438 15.2296 26.3684 15.292 26.4822V26.4876C15.7631 27.3924 16.6429 27.8041 17.5794 27.7337C18.5216 27.6633 19.5148 27.1377 20.3208 26.2221C21.0927 25.3336 22.3641 24.9652 23.2098 24.4776C23.6298 24.2338 23.9703 23.9304 23.9987 23.4861C24.0214 23.0419 23.749 22.5489 23.1189 21.8771ZM11.9774 4.72975C12.5336 3.527 13.9185 3.54867 14.4747 4.70808C14.8437 5.4774 14.6791 6.38218 14.2307 6.89687C14.1399 6.85352 13.8958 6.756 13.5155 6.63139C13.578 6.56638 13.6915 6.48511 13.7369 6.38218C14.0093 5.74288 13.7255 4.91937 13.2204 4.90312C12.8061 4.87603 12.4314 5.48824 12.5506 6.14921C12.3179 6.04086 12.0171 5.95959 11.8128 5.91083C11.756 5.537 11.7958 5.11983 11.9774 4.72975ZM9.66734 4.1067C10.2406 4.1067 10.8479 4.87603 10.7514 5.92166C10.5528 5.97584 10.3484 6.05711 10.1725 6.17088C10.2406 5.6887 9.98519 5.08191 9.62761 5.10899C9.15085 5.14692 9.07139 6.25757 9.52545 6.63139C9.58221 6.67474 9.63329 6.62056 9.19058 6.92937C8.30515 6.13838 8.59462 4.1067 9.66734 4.1067ZM8.89544 7.3953C9.24733 7.14608 9.66734 6.85352 9.69572 6.82644C9.96248 6.58805 10.462 6.05711 11.2793 6.05711C11.6822 6.05711 12.1647 6.18172 12.7493 6.53929C13.1069 6.76142 13.3907 6.77768 14.032 7.04315C14.5088 7.23277 14.8096 7.56867 14.628 8.02919C14.4804 8.41385 14.0036 8.80935 13.3396 9.00981C12.7096 9.20485 12.2158 9.87665 11.1714 9.81706C10.9501 9.80622 10.7741 9.76288 10.6265 9.70328C10.1725 9.51366 9.9341 9.13983 9.49139 8.89061C9.00327 8.63056 8.74219 8.32716 8.65705 8.06169C8.57759 7.79622 8.65705 7.57409 8.89544 7.3953ZM9.08274 25.4907C8.92949 27.3924 6.59107 27.3545 4.80887 26.4659C3.11181 25.6099 0.915285 26.1138 0.466898 25.2794C0.330679 25.0248 0.330679 24.5914 0.614468 23.8491V23.8383C0.750687 23.4266 0.648523 22.9715 0.580414 22.5435C0.512304 22.1209 0.47825 21.7308 0.631496 21.4599C0.830148 21.0969 1.11394 20.9669 1.47151 20.8477C2.05612 20.6472 2.14125 20.6635 2.58397 20.3113C2.89613 20.0025 3.12316 19.6124 3.3956 19.3361C3.68507 19.0381 3.96318 18.8973 4.40022 18.9623C4.85995 19.0273 5.25726 19.3307 5.64321 19.8291L6.75567 21.7579C7.29486 22.836 9.20193 24.3801 9.08274 25.4907ZM9.00328 24.0875C8.77057 23.7299 8.4584 23.3507 8.18596 23.0256C8.58894 23.0256 8.99192 22.9064 9.13382 22.5435C9.26436 22.2076 9.13382 21.7362 8.71381 21.1944C7.94758 20.2084 6.53999 19.4336 6.53999 19.4336C5.77376 18.9785 5.3424 18.4205 5.14374 17.8137C4.94509 17.2069 4.97347 16.5514 5.12672 15.9067C5.42186 14.666 6.18241 13.4578 6.67053 12.6993C6.80107 12.6072 6.71594 12.8727 6.17674 13.8262C5.69429 14.6985 4.79184 16.7139 6.02917 18.2905C6.06322 17.169 6.34133 16.0258 6.81242 14.9585C7.49352 13.4741 8.92949 10.9006 9.04301 8.85269C9.10544 8.89603 9.30409 9.02606 9.3949 9.07482C9.65599 9.2211 9.85464 9.43781 10.1101 9.63285C10.8139 10.1746 11.7277 10.1313 12.5166 9.69787C12.8685 9.50824 13.1523 9.29153 13.419 9.21026C13.9809 9.04231 14.4293 8.74433 14.6847 8.3976C15.1218 10.0446 16.1434 12.423 16.7961 13.5824C17.1423 14.2001 17.8348 15.5057 18.1356 17.0823C18.3229 17.0769 18.5329 17.104 18.7543 17.1582C19.5375 15.224 18.0902 13.1382 17.4318 12.5585C17.1651 12.3092 17.1537 12.2009 17.2842 12.2063C17.9994 12.8131 18.9416 14.0321 19.2821 15.4028C19.441 16.0313 19.4694 16.6868 19.3048 17.337C20.2356 17.7054 21.3424 18.3067 21.0473 19.2223C20.9224 19.2169 20.8657 19.2223 20.8089 19.2223C20.9905 18.6751 20.5875 18.2688 19.5148 17.8083C18.4024 17.3424 17.4715 17.3424 17.341 18.4855C16.6542 18.7131 16.3023 19.2819 16.1264 19.9646C15.9675 20.5714 15.9221 21.3028 15.8766 22.1263C15.8483 22.5435 15.6723 23.1015 15.4907 23.6974C13.6688 24.9381 11.1374 25.4799 9.00328 24.0875ZM23.6127 23.4645C23.5617 24.3747 21.2743 24.5426 20.0256 25.9838C19.2764 26.8343 18.357 27.3057 17.551 27.3653C16.745 27.4249 16.0469 27.1052 15.6383 26.3197C15.3715 25.7183 15.502 25.0681 15.7007 24.353C15.9107 23.5837 16.2229 22.7927 16.2626 22.1534C16.308 21.3299 16.3591 20.6093 16.501 20.0567C16.6486 19.4987 16.8756 19.1248 17.2786 18.9135C17.2956 18.9027 17.3183 18.8973 17.3353 18.8864C17.3807 19.6016 17.7497 20.3276 18.4024 20.4847C19.1175 20.6635 20.1448 20.0784 20.5819 19.6016C21.0927 19.5853 21.473 19.5528 21.8646 19.8779C22.4265 20.3384 22.2676 21.5195 22.8352 22.1317C23.4368 22.7602 23.6298 23.1882 23.6127 23.4645ZM9.11679 8.05627C9.23031 8.15921 9.38355 8.30008 9.57085 8.44094C9.94546 8.72266 10.4676 9.01522 11.1203 9.01522C11.7787 9.01522 12.3974 8.69557 12.9252 8.4301C13.2034 8.28924 13.5439 8.05086 13.7653 7.86665C13.9866 7.68245 14.1001 7.52533 13.9412 7.50908C13.7823 7.49282 13.7936 7.64994 13.6007 7.78538C13.3509 7.95875 13.0501 8.1863 12.8117 8.31633C12.3917 8.54388 11.7049 8.86894 11.1147 8.86894C10.5244 8.86894 10.0533 8.60889 9.7014 8.34342C9.52545 8.20797 9.37788 8.07253 9.26436 7.96959C9.17922 7.89374 9.15652 7.72037 9.0203 7.70412C8.94084 7.6987 8.91814 7.90458 9.11679 8.05627Z" fill="" stroke="#B671AC" stroke-width=".5" class="kVeVNhGB_0"></path>
<style data-made-with="vivus-instant">.kVeVNhGB_0{stroke-dasharray:271 273;stroke-dashoffset:272;}.start .kVeVNhGB_0{animation:kVeVNhGB_draw 3333ms linear 0ms forwards;}@keyframes kVeVNhGB_draw{100%{stroke-dashoffset:0;}}@keyframes kVeVNhGB_fade{0%{stroke-opacity:1;}95.65217391304348%{stroke-opacity:1;}100%{stroke-opacity:0;}}</style></svg>
