<svg width="39" height="39" viewBox="0 0 39 39" fill="none" xmlns="http://www.w3.org/2000/svg">
    <path d="M19.4 9.7L29.1 0H19.4H9.7H0L9.7 9.7L0 19.4L9.7 29.1L0 38.8H9.7H19.4H29.1L19.4 29.1L29.1 19.4L19.4 9.7Z"
          fill="#7B4091"/>
    <path opacity="0.8"
          d="M38.8 9.7L29.1 0H9.70001L19.4 9.7L9.70001 19.4L19.4 29.1L9.70001 38.8H29.1L38.8 29.1L29.1 19.4L38.8 9.7Z"
          fill="#15128D"/>
    <path d="M0 19.4H9.7L19.4 9.70001H9.7L0 19.4Z" fill="#B671AC"/>
    <path d="M0 38.8H9.7L19.4 29.1H9.7L0 38.8Z" fill="#B671AC"/>
</svg>
