<svg width="967" height="410" viewBox="0 0 967 410" fill="none" xmlns="http://www.w3.org/2000/svg" class="" style="">
    <path d="M59.1562 37.4219C59.1562 44.1406 57.9688 50.0312 55.5938 55.0938C53.2188 60.1562 49.8125 64.0625 45.375 66.8125C40.9688 69.5625 35.9062 70.9375 30.1875 70.9375C24.5312 70.9375 19.4844 69.5781 15.0469 66.8594C10.6094 64.1406 7.17188 60.2656 4.73438 55.2344C2.29688 50.1719 1.0625 44.3594 1.03125 37.7969V34.4219C1.03125 27.7031 2.23438 21.7969 4.64062 16.7031C7.07812 11.5781 10.5 7.65625 14.9062 4.9375C19.3438 2.1875 24.4062 0.8125 30.0938 0.8125C35.7812 0.8125 40.8281 2.1875 45.2344 4.9375C49.6719 7.65625 53.0938 11.5781 55.5 16.7031C57.9375 21.7969 59.1562 27.6875 59.1562 34.375V37.4219ZM44.9062 34.3281C44.9062 27.1719 43.625 21.7344 41.0625 18.0156C38.5 14.2969 34.8438 12.4375 30.0938 12.4375C25.375 12.4375 21.7344 14.2812 19.1719 17.9688C16.6094 21.625 15.3125 27 15.2812 34.0938V37.4219C15.2812 44.3906 16.5625 49.7969 19.125 53.6406C21.6875 57.4844 25.375 59.4062 30.1875 59.4062C34.9062 59.4062 38.5312 57.5625 41.0625 53.875C43.5938 50.1562 44.875 44.75 44.9062 37.6562V34.3281ZM98.8594 64.8438C95.5156 68.9062 90.8906 70.9375 84.9844 70.9375C79.5469 70.9375 75.3906 69.375 72.5156 66.25C69.6719 63.125 68.2188 58.5469 68.1562 52.5156V19.2812H81.7031V52.0469C81.7031 57.3281 84.1094 59.9688 88.9219 59.9688C93.5156 59.9688 96.6719 58.375 98.3906 55.1875V19.2812H111.984V70H99.2344L98.8594 64.8438ZM150.703 31.9844C148.859 31.7344 147.234 31.6094 145.828 31.6094C140.703 31.6094 137.344 33.3438 135.75 36.8125V70H122.203V19.2812H135L135.375 25.3281C138.094 20.6719 141.859 18.3438 146.672 18.3438C148.172 18.3438 149.578 18.5469 150.891 18.9531L150.703 31.9844ZM202.266 60.0156C204.766 60.0156 206.797 59.3281 208.359 57.9531C209.922 56.5781 210.734 54.75 210.797 52.4688H223.5C223.469 55.9062 222.531 59.0625 220.688 61.9375C218.844 64.7812 216.312 67 213.094 68.5938C209.906 70.1562 206.375 70.9375 202.5 70.9375C195.25 70.9375 189.531 68.6406 185.344 64.0469C181.156 59.4219 179.062 53.0469 179.062 44.9219V44.0312C179.062 36.2188 181.141 29.9844 185.297 25.3281C189.453 20.6719 195.156 18.3438 202.406 18.3438C208.75 18.3438 213.828 20.1562 217.641 23.7812C221.484 27.375 223.438 32.1719 223.5 38.1719H210.797C210.734 35.5469 209.922 33.4219 208.359 31.7969C206.797 30.1406 204.734 29.3125 202.172 29.3125C199.016 29.3125 196.625 30.4688 195 32.7812C193.406 35.0625 192.609 38.7812 192.609 43.9375V45.3438C192.609 50.5625 193.406 54.3125 195 56.5938C196.594 58.875 199.016 60.0156 202.266 60.0156ZM229.125 44.1719C229.125 39.1406 230.094 34.6562 232.031 30.7188C233.969 26.7812 236.75 23.7344 240.375 21.5781C244.031 19.4219 248.266 18.3438 253.078 18.3438C259.922 18.3438 265.5 20.4375 269.812 24.625C274.156 28.8125 276.578 34.5 277.078 41.6875L277.172 45.1562C277.172 52.9375 275 59.1875 270.656 63.9062C266.312 68.5938 260.484 70.9375 253.172 70.9375C245.859 70.9375 240.016 68.5938 235.641 63.9062C231.297 59.2188 229.125 52.8438 229.125 44.7812V44.1719ZM242.672 45.1562C242.672 49.9688 243.578 53.6562 245.391 56.2188C247.203 58.75 249.797 60.0156 253.172 60.0156C256.453 60.0156 259.016 58.7656 260.859 56.2656C262.703 53.7344 263.625 49.7031 263.625 44.1719C263.625 39.4531 262.703 35.7969 260.859 33.2031C259.016 30.6094 256.422 29.3125 253.078 29.3125C249.766 29.3125 247.203 30.6094 245.391 33.2031C243.578 35.7656 242.672 39.75 242.672 45.1562ZM298.219 19.2812L298.641 24.9531C302.234 20.5469 307.094 18.3438 313.219 18.3438C319.75 18.3438 324.234 20.9219 326.672 26.0781C330.234 20.9219 335.312 18.3438 341.906 18.3438C347.406 18.3438 351.5 19.9531 354.188 23.1719C356.875 26.3594 358.219 31.1719 358.219 37.6094V70H344.625V37.6562C344.625 34.7812 344.062 32.6875 342.938 31.375C341.812 30.0312 339.828 29.3594 336.984 29.3594C332.922 29.3594 330.109 31.2969 328.547 35.1719L328.594 70H315.047V37.7031C315.047 34.7656 314.469 32.6406 313.312 31.3281C312.156 30.0156 310.188 29.3594 307.406 29.3594C303.562 29.3594 300.781 30.9531 299.062 34.1406V70H285.516V19.2812H298.219ZM414.328 45.1094C414.328 52.9219 412.547 59.1875 408.984 63.9062C405.453 68.5938 400.672 70.9375 394.641 70.9375C389.516 70.9375 385.375 69.1562 382.219 65.5938V89.5H368.672V19.2812H381.234L381.703 24.25C384.984 20.3125 389.266 18.3438 394.547 18.3438C400.797 18.3438 405.656 20.6562 409.125 25.2812C412.594 29.9062 414.328 36.2812 414.328 44.4062V45.1094ZM400.781 44.125C400.781 39.4062 399.938 35.7656 398.25 33.2031C396.594 30.6406 394.172 29.3594 390.984 29.3594C386.734 29.3594 383.812 30.9844 382.219 34.2344V55C383.875 58.3438 386.828 60.0156 391.078 60.0156C397.547 60.0156 400.781 54.7188 400.781 44.125ZM452.156 70C451.531 68.7812 451.078 67.2656 450.797 65.4531C447.516 69.1094 443.25 70.9375 438 70.9375C433.031 70.9375 428.906 69.5 425.625 66.625C422.375 63.75 420.75 60.125 420.75 55.75C420.75 50.375 422.734 46.25 426.703 43.375C430.703 40.5 436.469 39.0469 444 39.0156H450.234V36.1094C450.234 33.7656 449.625 31.8906 448.406 30.4844C447.219 29.0781 445.328 28.375 442.734 28.375C440.453 28.375 438.656 28.9219 437.344 30.0156C436.062 31.1094 435.422 32.6094 435.422 34.5156H421.875C421.875 31.5781 422.781 28.8594 424.594 26.3594C426.406 23.8594 428.969 21.9062 432.281 20.5C435.594 19.0625 439.312 18.3438 443.438 18.3438C449.688 18.3438 454.641 19.9219 458.297 23.0781C461.984 26.2031 463.828 30.6094 463.828 36.2969V58.2812C463.859 63.0938 464.531 66.7344 465.844 69.2031V70H452.156ZM440.953 60.5781C442.953 60.5781 444.797 60.1406 446.484 59.2656C448.172 58.3594 449.422 57.1562 450.234 55.6562V46.9375H445.172C438.391 46.9375 434.781 49.2812 434.344 53.9688L434.297 54.7656C434.297 56.4531 434.891 57.8438 436.078 58.9375C437.266 60.0312 438.891 60.5781 440.953 60.5781ZM486.703 19.2812L487.125 25.1406C490.75 20.6094 495.609 18.3438 501.703 18.3438C507.078 18.3438 511.078 19.9219 513.703 23.0781C516.328 26.2344 517.672 30.9531 517.734 37.2344V70H504.188V37.5625C504.188 34.6875 503.562 32.6094 502.312 31.3281C501.062 30.0156 498.984 29.3594 496.078 29.3594C492.266 29.3594 489.406 30.9844 487.5 34.2344V70H473.953V19.2812H486.703ZM546.984 50.8281L556.359 19.2812H570.891L550.5 77.875L549.375 80.5469C546.344 87.1719 541.344 90.4844 534.375 90.4844C532.406 90.4844 530.406 90.1875 528.375 89.5938V79.3281L530.438 79.375C533 79.375 534.906 78.9844 536.156 78.2031C537.438 77.4219 538.438 76.125 539.156 74.3125L540.75 70.1406L522.984 19.2812H537.562L546.984 50.8281ZM9.46875 117.469L7.59375 136.734H0V111H9.46875V117.469ZM24.7031 117.469L22.875 136.734H15.2812V111H24.7031V117.469ZM33.9375 183V114.75H57.8438C66.125 114.75 72.4062 116.344 76.6875 119.531C80.9688 122.688 83.1094 127.328 83.1094 133.453C83.1094 136.797 82.25 139.75 80.5312 142.312C78.8125 144.844 76.4219 146.703 73.3594 147.891C76.8594 148.766 79.6094 150.531 81.6094 153.188C83.6406 155.844 84.6562 159.094 84.6562 162.938C84.6562 169.5 82.5625 174.469 78.375 177.844C74.1875 181.219 68.2188 182.938 60.4688 183H33.9375ZM48 153.281V171.703H60.0469C63.3594 171.703 65.9375 170.922 67.7812 169.359C69.6562 167.766 70.5938 165.578 70.5938 162.797C70.5938 156.547 67.3594 153.375 60.8906 153.281H48ZM48 143.344H58.4062C65.5 143.219 69.0469 140.391 69.0469 134.859C69.0469 131.766 68.1406 129.547 66.3281 128.203C64.5469 126.828 61.7188 126.141 57.8438 126.141H48V143.344ZM108.656 183H95.0625V132.281H108.656V183ZM94.2656 119.156C94.2656 117.125 94.9375 115.453 96.2812 114.141C97.6562 112.828 99.5156 112.172 101.859 112.172C104.172 112.172 106.016 112.828 107.391 114.141C108.766 115.453 109.453 117.125 109.453 119.156C109.453 121.219 108.75 122.906 107.344 124.219C105.969 125.531 104.141 126.188 101.859 126.188C99.5781 126.188 97.7344 125.531 96.3281 124.219C94.9531 122.906 94.2656 121.219 94.2656 119.156ZM132.328 132.281L132.75 138.141C136.375 133.609 141.234 131.344 147.328 131.344C152.703 131.344 156.703 132.922 159.328 136.078C161.953 139.234 163.297 143.953 163.359 150.234V183H149.812V150.562C149.812 147.688 149.188 145.609 147.938 144.328C146.688 143.016 144.609 142.359 141.703 142.359C137.891 142.359 135.031 143.984 133.125 147.234V183H119.578V132.281H132.328ZM171.562 157.172C171.562 152.141 172.531 147.656 174.469 143.719C176.406 139.781 179.188 136.734 182.812 134.578C186.469 132.422 190.703 131.344 195.516 131.344C202.359 131.344 207.938 133.438 212.25 137.625C216.594 141.812 219.016 147.5 219.516 154.688L219.609 158.156C219.609 165.938 217.438 172.188 213.094 176.906C208.75 181.594 202.922 183.938 195.609 183.938C188.297 183.938 182.453 181.594 178.078 176.906C173.734 172.219 171.562 165.844 171.562 157.781V157.172ZM185.109 158.156C185.109 162.969 186.016 166.656 187.828 169.219C189.641 171.75 192.234 173.016 195.609 173.016C198.891 173.016 201.453 171.766 203.297 169.266C205.141 166.734 206.062 162.703 206.062 157.172C206.062 152.453 205.141 148.797 203.297 146.203C201.453 143.609 198.859 142.312 195.516 142.312C192.203 142.312 189.641 143.609 187.828 146.203C186.016 148.766 185.109 152.75 185.109 158.156ZM273.609 158.109C273.609 165.922 271.828 172.188 268.266 176.906C264.734 181.594 259.953 183.938 253.922 183.938C248.797 183.938 244.656 182.156 241.5 178.594V202.5H227.953V132.281H240.516L240.984 137.25C244.266 133.312 248.547 131.344 253.828 131.344C260.078 131.344 264.938 133.656 268.406 138.281C271.875 142.906 273.609 149.281 273.609 157.406V158.109ZM260.062 157.125C260.062 152.406 259.219 148.766 257.531 146.203C255.875 143.641 253.453 142.359 250.266 142.359C246.016 142.359 243.094 143.984 241.5 147.234V168C243.156 171.344 246.109 173.016 250.359 173.016C256.828 173.016 260.062 167.719 260.062 157.125ZM298.266 119.812V132.281H306.938V142.219H298.266V167.531C298.266 169.406 298.625 170.75 299.344 171.562C300.062 172.375 301.438 172.781 303.469 172.781C304.969 172.781 306.297 172.672 307.453 172.453V182.719C304.797 183.531 302.062 183.938 299.25 183.938C289.75 183.938 284.906 179.141 284.719 169.547V142.219H277.312V132.281H284.719V119.812H298.266ZM321.75 117.469L319.875 136.734H312.281V111H321.75V117.469ZM336.984 117.469L335.156 136.734H327.562V111H336.984V117.469ZM413.344 164.578L420 132.281H433.078L420.141 183H408.797L399.188 151.078L389.578 183H378.281L365.344 132.281H378.422L385.031 164.531L394.312 132.281H404.109L413.344 164.578ZM454.125 183H440.531V132.281H454.125V183ZM439.734 119.156C439.734 117.125 440.406 115.453 441.75 114.141C443.125 112.828 444.984 112.172 447.328 112.172C449.641 112.172 451.484 112.828 452.859 114.141C454.234 115.453 454.922 117.125 454.922 119.156C454.922 121.219 454.219 122.906 452.812 124.219C451.438 125.531 449.609 126.188 447.328 126.188C445.047 126.188 443.203 125.531 441.797 124.219C440.422 122.906 439.734 121.219 439.734 119.156ZM479.625 183H466.031V111H479.625V183ZM505.125 183H491.531V111H505.125V183ZM561.328 173.016C563.828 173.016 565.859 172.328 567.422 170.953C568.984 169.578 569.797 167.75 569.859 165.469H582.562C582.531 168.906 581.594 172.062 579.75 174.938C577.906 177.781 575.375 180 572.156 181.594C568.969 183.156 565.438 183.938 561.562 183.938C554.312 183.938 548.594 181.641 544.406 177.047C540.219 172.422 538.125 166.047 538.125 157.922V157.031C538.125 149.219 540.203 142.984 544.359 138.328C548.516 133.672 554.219 131.344 561.469 131.344C567.812 131.344 572.891 133.156 576.703 136.781C580.547 140.375 582.5 145.172 582.562 151.172H569.859C569.797 148.547 568.984 146.422 567.422 144.797C565.859 143.141 563.797 142.312 561.234 142.312C558.078 142.312 555.688 143.469 554.062 145.781C552.469 148.062 551.672 151.781 551.672 156.938V158.344C551.672 163.562 552.469 167.312 554.062 169.594C555.656 171.875 558.078 173.016 561.328 173.016ZM618.797 144.984C616.953 144.734 615.328 144.609 613.922 144.609C608.797 144.609 605.438 146.344 603.844 149.812V183H590.297V132.281H603.094L603.469 138.328C606.188 133.672 609.953 131.344 614.766 131.344C616.266 131.344 617.672 131.547 618.984 131.953L618.797 144.984ZM647.766 183.938C640.328 183.938 634.266 181.656 629.578 177.094C624.922 172.531 622.594 166.453 622.594 158.859V157.547C622.594 152.453 623.578 147.906 625.547 143.906C627.516 139.875 630.297 136.781 633.891 134.625C637.516 132.438 641.641 131.344 646.266 131.344C653.203 131.344 658.656 133.531 662.625 137.906C666.625 142.281 668.625 148.484 668.625 156.516V162.047H636.328C636.766 165.359 638.078 168.016 640.266 170.016C642.484 172.016 645.281 173.016 648.656 173.016C653.875 173.016 657.953 171.125 660.891 167.344L667.547 174.797C665.516 177.672 662.766 179.922 659.297 181.547C655.828 183.141 651.984 183.938 647.766 183.938ZM646.219 142.312C643.531 142.312 641.344 143.219 639.656 145.031C638 146.844 636.938 149.438 636.469 152.812H655.312V151.734C655.25 148.734 654.438 146.422 652.875 144.797C651.312 143.141 649.094 142.312 646.219 142.312ZM705.75 183C705.125 181.781 704.672 180.266 704.391 178.453C701.109 182.109 696.844 183.938 691.594 183.938C686.625 183.938 682.5 182.5 679.219 179.625C675.969 176.75 674.344 173.125 674.344 168.75C674.344 163.375 676.328 159.25 680.297 156.375C684.297 153.5 690.062 152.047 697.594 152.016H703.828V149.109C703.828 146.766 703.219 144.891 702 143.484C700.812 142.078 698.922 141.375 696.328 141.375C694.047 141.375 692.25 141.922 690.938 143.016C689.656 144.109 689.016 145.609 689.016 147.516H675.469C675.469 144.578 676.375 141.859 678.188 139.359C680 136.859 682.562 134.906 685.875 133.5C689.188 132.062 692.906 131.344 697.031 131.344C703.281 131.344 708.234 132.922 711.891 136.078C715.578 139.203 717.422 143.609 717.422 149.297V171.281C717.453 176.094 718.125 179.734 719.438 182.203V183H705.75ZM694.547 173.578C696.547 173.578 698.391 173.141 700.078 172.266C701.766 171.359 703.016 170.156 703.828 168.656V159.938H698.766C691.984 159.938 688.375 162.281 687.938 166.969L687.891 167.766C687.891 169.453 688.484 170.844 689.672 171.938C690.859 173.031 692.484 173.578 694.547 173.578ZM744.047 119.812V132.281H752.719V142.219H744.047V167.531C744.047 169.406 744.406 170.75 745.125 171.562C745.844 172.375 747.219 172.781 749.25 172.781C750.75 172.781 752.078 172.672 753.234 172.453V182.719C750.578 183.531 747.844 183.938 745.031 183.938C735.531 183.938 730.688 179.141 730.5 169.547V142.219H723.094V132.281H730.5V119.812H744.047ZM783.609 183.938C776.172 183.938 770.109 181.656 765.422 177.094C760.766 172.531 758.438 166.453 758.438 158.859V157.547C758.438 152.453 759.422 147.906 761.391 143.906C763.359 139.875 766.141 136.781 769.734 134.625C773.359 132.438 777.484 131.344 782.109 131.344C789.047 131.344 794.5 133.531 798.469 137.906C802.469 142.281 804.469 148.484 804.469 156.516V162.047H772.172C772.609 165.359 773.922 168.016 776.109 170.016C778.328 172.016 781.125 173.016 784.5 173.016C789.719 173.016 793.797 171.125 796.734 167.344L803.391 174.797C801.359 177.672 798.609 179.922 795.141 181.547C791.672 183.141 787.828 183.938 783.609 183.938ZM782.062 142.312C779.375 142.312 777.188 143.219 775.5 145.031C773.844 146.844 772.781 149.438 772.312 152.812H791.156V151.734C791.094 148.734 790.281 146.422 788.719 144.797C787.156 143.141 784.938 142.312 782.062 142.312ZM852.328 119.812V132.281H861V142.219H852.328V167.531C852.328 169.406 852.688 170.75 853.406 171.562C854.125 172.375 855.5 172.781 857.531 172.781C859.031 172.781 860.359 172.672 861.516 172.453V182.719C858.859 183.531 856.125 183.938 853.312 183.938C843.812 183.938 838.969 179.141 838.781 169.547V142.219H831.375V132.281H838.781V119.812H852.328ZM881.766 137.812C885.359 133.5 889.875 131.344 895.312 131.344C906.312 131.344 911.891 137.734 912.047 150.516V183H898.5V150.891C898.5 147.984 897.875 145.844 896.625 144.469C895.375 143.062 893.297 142.359 890.391 142.359C886.422 142.359 883.547 143.891 881.766 146.953V183H868.219V111H881.766V137.812ZM945.609 183.938C938.172 183.938 932.109 181.656 927.422 177.094C922.766 172.531 920.438 166.453 920.438 158.859V157.547C920.438 152.453 921.422 147.906 923.391 143.906C925.359 139.875 928.141 136.781 931.734 134.625C935.359 132.438 939.484 131.344 944.109 131.344C951.047 131.344 956.5 133.531 960.469 137.906C964.469 142.281 966.469 148.484 966.469 156.516V162.047H934.172C934.609 165.359 935.922 168.016 938.109 170.016C940.328 172.016 943.125 173.016 946.5 173.016C951.719 173.016 955.797 171.125 958.734 167.344L965.391 174.797C963.359 177.672 960.609 179.922 957.141 181.547C953.672 183.141 949.828 183.938 945.609 183.938ZM944.062 142.312C941.375 142.312 939.188 143.219 937.5 145.031C935.844 146.844 934.781 149.438 934.312 152.812H953.156V151.734C953.094 148.734 952.281 146.422 950.719 144.797C949.156 143.141 946.938 142.312 944.062 142.312ZM47.9062 271.109C47.9062 279.234 46.1719 285.578 42.7031 290.141C39.2344 294.672 34.3906 296.938 28.1719 296.938C22.6719 296.938 18.2812 294.828 15 290.609L14.3906 296H2.20312V224H15.75V249.828C18.875 246.172 22.9844 244.344 28.0781 244.344C34.2656 244.344 39.1094 246.625 42.6094 251.188C46.1406 255.719 47.9062 262.109 47.9062 270.359V271.109ZM34.3594 270.125C34.3594 265 33.5469 261.266 31.9219 258.922C30.2969 256.547 27.875 255.359 24.6562 255.359C20.3438 255.359 17.375 257.125 15.75 260.656V280.672C17.4062 284.234 20.4062 286.016 24.75 286.016C29.125 286.016 32 283.859 33.375 279.547C34.0312 277.484 34.3594 274.344 34.3594 270.125ZM79.6406 296.938C72.2031 296.938 66.1406 294.656 61.4531 290.094C56.7969 285.531 54.4688 279.453 54.4688 271.859V270.547C54.4688 265.453 55.4531 260.906 57.4219 256.906C59.3906 252.875 62.1719 249.781 65.7656 247.625C69.3906 245.438 73.5156 244.344 78.1406 244.344C85.0781 244.344 90.5312 246.531 94.5 250.906C98.5 255.281 100.5 261.484 100.5 269.516V275.047H68.2031C68.6406 278.359 69.9531 281.016 72.1406 283.016C74.3594 285.016 77.1562 286.016 80.5312 286.016C85.75 286.016 89.8281 284.125 92.7656 280.344L99.4219 287.797C97.3906 290.672 94.6406 292.922 91.1719 294.547C87.7031 296.141 83.8594 296.938 79.6406 296.938ZM78.0938 255.312C75.4062 255.312 73.2188 256.219 71.5312 258.031C69.875 259.844 68.8125 262.438 68.3438 265.812H87.1875V264.734C87.125 261.734 86.3125 259.422 84.75 257.797C83.1875 256.141 80.9688 255.312 78.0938 255.312ZM135.703 281.984C135.703 280.328 134.875 279.031 133.219 278.094C131.594 277.125 128.969 276.266 125.344 275.516C113.281 272.984 107.25 267.859 107.25 260.141C107.25 255.641 109.109 251.891 112.828 248.891C116.578 245.859 121.469 244.344 127.5 244.344C133.938 244.344 139.078 245.859 142.922 248.891C146.797 251.922 148.734 255.859 148.734 260.703H135.188C135.188 258.766 134.562 257.172 133.312 255.922C132.062 254.641 130.109 254 127.453 254C125.172 254 123.406 254.516 122.156 255.547C120.906 256.578 120.281 257.891 120.281 259.484C120.281 260.984 120.984 262.203 122.391 263.141C123.828 264.047 126.234 264.844 129.609 265.531C132.984 266.188 135.828 266.938 138.141 267.781C145.297 270.406 148.875 274.953 148.875 281.422C148.875 286.047 146.891 289.797 142.922 292.672C138.953 295.516 133.828 296.938 127.547 296.938C123.297 296.938 119.516 296.188 116.203 294.688C112.922 293.156 110.344 291.078 108.469 288.453C106.594 285.797 105.656 282.938 105.656 279.875H118.5C118.625 282.281 119.516 284.125 121.172 285.406C122.828 286.688 125.047 287.328 127.828 287.328C130.422 287.328 132.375 286.844 133.688 285.875C135.031 284.875 135.703 283.578 135.703 281.984ZM173.859 232.812V245.281H182.531V255.219H173.859V280.531C173.859 282.406 174.219 283.75 174.938 284.562C175.656 285.375 177.031 285.781 179.062 285.781C180.562 285.781 181.891 285.672 183.047 285.453V295.719C180.391 296.531 177.656 296.938 174.844 296.938C165.344 296.938 160.5 292.141 160.312 282.547V255.219H152.906V245.281H160.312V232.812H173.859ZM259.641 271.109C259.641 278.922 257.859 285.188 254.297 289.906C250.766 294.594 245.984 296.938 239.953 296.938C234.828 296.938 230.688 295.156 227.531 291.594V315.5H213.984V245.281H226.547L227.016 250.25C230.297 246.312 234.578 244.344 239.859 244.344C246.109 244.344 250.969 246.656 254.438 251.281C257.906 255.906 259.641 262.281 259.641 270.406V271.109ZM246.094 270.125C246.094 265.406 245.25 261.766 243.562 259.203C241.906 256.641 239.484 255.359 236.297 255.359C232.047 255.359 229.125 256.984 227.531 260.234V281C229.188 284.344 232.141 286.016 236.391 286.016C242.859 286.016 246.094 280.719 246.094 270.125ZM296.578 257.984C294.734 257.734 293.109 257.609 291.703 257.609C286.578 257.609 283.219 259.344 281.625 262.812V296H268.078V245.281H280.875L281.25 251.328C283.969 246.672 287.734 244.344 292.547 244.344C294.047 244.344 295.453 244.547 296.766 244.953L296.578 257.984ZM299.344 270.172C299.344 265.141 300.312 260.656 302.25 256.719C304.188 252.781 306.969 249.734 310.594 247.578C314.25 245.422 318.484 244.344 323.297 244.344C330.141 244.344 335.719 246.438 340.031 250.625C344.375 254.812 346.797 260.5 347.297 267.688L347.391 271.156C347.391 278.938 345.219 285.188 340.875 289.906C336.531 294.594 330.703 296.938 323.391 296.938C316.078 296.938 310.234 294.594 305.859 289.906C301.516 285.219 299.344 278.844 299.344 270.781V270.172ZM312.891 271.156C312.891 275.969 313.797 279.656 315.609 282.219C317.422 284.75 320.016 286.016 323.391 286.016C326.672 286.016 329.234 284.766 331.078 282.266C332.922 279.734 333.844 275.703 333.844 270.172C333.844 265.453 332.922 261.797 331.078 259.203C329.234 256.609 326.641 255.312 323.297 255.312C319.984 255.312 317.422 256.609 315.609 259.203C313.797 261.766 312.891 265.75 312.891 271.156ZM353.625 270.266C353.625 262.359 355.391 256.062 358.922 251.375C362.484 246.688 367.344 244.344 373.5 244.344C378.438 244.344 382.516 246.188 385.734 249.875V224H399.328V296H387.094L386.438 290.609C383.062 294.828 378.719 296.938 373.406 296.938C367.438 296.938 362.641 294.594 359.016 289.906C355.422 285.188 353.625 278.641 353.625 270.266ZM367.172 271.25C367.172 276 368 279.641 369.656 282.172C371.312 284.703 373.719 285.969 376.875 285.969C381.062 285.969 384.016 284.203 385.734 280.672V260.656C384.047 257.125 381.125 255.359 376.969 255.359C370.438 255.359 367.172 260.656 367.172 271.25ZM440.203 290.844C436.859 294.906 432.234 296.938 426.328 296.938C420.891 296.938 416.734 295.375 413.859 292.25C411.016 289.125 409.562 284.547 409.5 278.516V245.281H423.047V278.047C423.047 283.328 425.453 285.969 430.266 285.969C434.859 285.969 438.016 284.375 439.734 281.188V245.281H453.328V296H440.578L440.203 290.844ZM484.641 286.016C487.141 286.016 489.172 285.328 490.734 283.953C492.297 282.578 493.109 280.75 493.172 278.469H505.875C505.844 281.906 504.906 285.062 503.062 287.938C501.219 290.781 498.688 293 495.469 294.594C492.281 296.156 488.75 296.938 484.875 296.938C477.625 296.938 471.906 294.641 467.719 290.047C463.531 285.422 461.438 279.047 461.438 270.922V270.031C461.438 262.219 463.516 255.984 467.672 251.328C471.828 246.672 477.531 244.344 484.781 244.344C491.125 244.344 496.203 246.156 500.016 249.781C503.859 253.375 505.812 258.172 505.875 264.172H493.172C493.109 261.547 492.297 259.422 490.734 257.797C489.172 256.141 487.109 255.312 484.547 255.312C481.391 255.312 479 256.469 477.375 258.781C475.781 261.062 474.984 264.781 474.984 269.938V271.344C474.984 276.562 475.781 280.312 477.375 282.594C478.969 284.875 481.391 286.016 484.641 286.016ZM529.828 232.812V245.281H538.5V255.219H529.828V280.531C529.828 282.406 530.188 283.75 530.906 284.562C531.625 285.375 533 285.781 535.031 285.781C536.531 285.781 537.859 285.672 539.016 285.453V295.719C536.359 296.531 533.625 296.938 530.812 296.938C521.312 296.938 516.469 292.141 516.281 282.547V255.219H508.875V245.281H516.281V232.812H529.828ZM573.656 296V255.219H566.109V245.281H573.656V240.969C573.656 235.281 575.281 230.875 578.531 227.75C581.812 224.594 586.391 223.016 592.266 223.016C594.141 223.016 596.438 223.328 599.156 223.953L599.016 234.453C597.891 234.172 596.516 234.031 594.891 234.031C589.797 234.031 587.25 236.422 587.25 241.203V245.281H597.328V255.219H587.25V296H573.656ZM602.25 270.172C602.25 265.141 603.219 260.656 605.156 256.719C607.094 252.781 609.875 249.734 613.5 247.578C617.156 245.422 621.391 244.344 626.203 244.344C633.047 244.344 638.625 246.438 642.938 250.625C647.281 254.812 649.703 260.5 650.203 267.688L650.297 271.156C650.297 278.938 648.125 285.188 643.781 289.906C639.438 294.594 633.609 296.938 626.297 296.938C618.984 296.938 613.141 294.594 608.766 289.906C604.422 285.219 602.25 278.844 602.25 270.781V270.172ZM615.797 271.156C615.797 275.969 616.703 279.656 618.516 282.219C620.328 284.75 622.922 286.016 626.297 286.016C629.578 286.016 632.141 284.766 633.984 282.266C635.828 279.734 636.75 275.703 636.75 270.172C636.75 265.453 635.828 261.797 633.984 259.203C632.141 256.609 629.547 255.312 626.203 255.312C622.891 255.312 620.328 256.609 618.516 259.203C616.703 261.766 615.797 265.75 615.797 271.156ZM687.141 257.984C685.297 257.734 683.672 257.609 682.266 257.609C677.141 257.609 673.781 259.344 672.188 262.812V296H658.641V245.281H671.438L671.812 251.328C674.531 246.672 678.297 244.344 683.109 244.344C684.609 244.344 686.016 244.547 687.328 244.953L687.141 257.984ZM736.547 276.828L745.922 245.281H760.453L740.062 303.875L738.938 306.547C735.906 313.172 730.906 316.484 723.938 316.484C721.969 316.484 719.969 316.188 717.938 315.594V305.328L720 305.375C722.562 305.375 724.469 304.984 725.719 304.203C727 303.422 728 302.125 728.719 300.312L730.312 296.141L712.547 245.281H727.125L736.547 276.828ZM762.938 270.172C762.938 265.141 763.906 260.656 765.844 256.719C767.781 252.781 770.562 249.734 774.188 247.578C777.844 245.422 782.078 244.344 786.891 244.344C793.734 244.344 799.312 246.438 803.625 250.625C807.969 254.812 810.391 260.5 810.891 267.688L810.984 271.156C810.984 278.938 808.812 285.188 804.469 289.906C800.125 294.594 794.297 296.938 786.984 296.938C779.672 296.938 773.828 294.594 769.453 289.906C765.109 285.219 762.938 278.844 762.938 270.781V270.172ZM776.484 271.156C776.484 275.969 777.391 279.656 779.203 282.219C781.016 284.75 783.609 286.016 786.984 286.016C790.266 286.016 792.828 284.766 794.672 282.266C796.516 279.734 797.438 275.703 797.438 270.172C797.438 265.453 796.516 261.797 794.672 259.203C792.828 256.609 790.234 255.312 786.891 255.312C783.578 255.312 781.016 256.609 779.203 259.203C777.391 261.766 776.484 265.75 776.484 271.156ZM849.703 290.844C846.359 294.906 841.734 296.938 835.828 296.938C830.391 296.938 826.234 295.375 823.359 292.25C820.516 289.125 819.062 284.547 819 278.516V245.281H832.547V278.047C832.547 283.328 834.953 285.969 839.766 285.969C844.359 285.969 847.516 284.375 849.234 281.188V245.281H862.828V296H850.078L849.703 290.844ZM901.547 257.984C899.703 257.734 898.078 257.609 896.672 257.609C891.547 257.609 888.188 259.344 886.594 262.812V296H873.047V245.281H885.844L886.219 251.328C888.938 246.672 892.703 244.344 897.516 244.344C899.016 244.344 900.422 244.547 901.734 244.953L901.547 257.984ZM47.9062 384.109C47.9062 392.234 46.1719 398.578 42.7031 403.141C39.2344 407.672 34.3906 409.938 28.1719 409.938C22.6719 409.938 18.2812 407.828 15 403.609L14.3906 409H2.20312V337H15.75V362.828C18.875 359.172 22.9844 357.344 28.0781 357.344C34.2656 357.344 39.1094 359.625 42.6094 364.188C46.1406 368.719 47.9062 375.109 47.9062 383.359V384.109ZM34.3594 383.125C34.3594 378 33.5469 374.266 31.9219 371.922C30.2969 369.547 27.875 368.359 24.6562 368.359C20.3438 368.359 17.375 370.125 15.75 373.656V393.672C17.4062 397.234 20.4062 399.016 24.75 399.016C29.125 399.016 32 396.859 33.375 392.547C34.0312 390.484 34.3594 387.344 34.3594 383.125ZM86.6719 403.844C83.3281 407.906 78.7031 409.938 72.7969 409.938C67.3594 409.938 63.2031 408.375 60.3281 405.25C57.4844 402.125 56.0312 397.547 55.9688 391.516V358.281H69.5156V391.047C69.5156 396.328 71.9219 398.969 76.7344 398.969C81.3281 398.969 84.4844 397.375 86.2031 394.188V358.281H99.7969V409H87.0469L86.6719 403.844ZM137.484 394.984C137.484 393.328 136.656 392.031 135 391.094C133.375 390.125 130.75 389.266 127.125 388.516C115.062 385.984 109.031 380.859 109.031 373.141C109.031 368.641 110.891 364.891 114.609 361.891C118.359 358.859 123.25 357.344 129.281 357.344C135.719 357.344 140.859 358.859 144.703 361.891C148.578 364.922 150.516 368.859 150.516 373.703H136.969C136.969 371.766 136.344 370.172 135.094 368.922C133.844 367.641 131.891 367 129.234 367C126.953 367 125.188 367.516 123.938 368.547C122.688 369.578 122.062 370.891 122.062 372.484C122.062 373.984 122.766 375.203 124.172 376.141C125.609 377.047 128.016 377.844 131.391 378.531C134.766 379.188 137.609 379.938 139.922 380.781C147.078 383.406 150.656 387.953 150.656 394.422C150.656 399.047 148.672 402.797 144.703 405.672C140.734 408.516 135.609 409.938 129.328 409.938C125.078 409.938 121.297 409.188 117.984 407.688C114.703 406.156 112.125 404.078 110.25 401.453C108.375 398.797 107.438 395.938 107.438 392.875H120.281C120.406 395.281 121.297 397.125 122.953 398.406C124.609 399.688 126.828 400.328 129.609 400.328C132.203 400.328 134.156 399.844 135.469 398.875C136.812 397.875 137.484 396.578 137.484 394.984ZM173.719 409H160.125V358.281H173.719V409ZM159.328 345.156C159.328 343.125 160 341.453 161.344 340.141C162.719 338.828 164.578 338.172 166.922 338.172C169.234 338.172 171.078 338.828 172.453 340.141C173.828 341.453 174.516 343.125 174.516 345.156C174.516 347.219 173.812 348.906 172.406 350.219C171.031 351.531 169.203 352.188 166.922 352.188C164.641 352.188 162.797 351.531 161.391 350.219C160.016 348.906 159.328 347.219 159.328 345.156ZM197.391 358.281L197.812 364.141C201.438 359.609 206.297 357.344 212.391 357.344C217.766 357.344 221.766 358.922 224.391 362.078C227.016 365.234 228.359 369.953 228.422 376.234V409H214.875V376.562C214.875 373.688 214.25 371.609 213 370.328C211.75 369.016 209.672 368.359 206.766 368.359C202.953 368.359 200.094 369.984 198.188 373.234V409H184.641V358.281H197.391ZM262.078 409.938C254.641 409.938 248.578 407.656 243.891 403.094C239.234 398.531 236.906 392.453 236.906 384.859V383.547C236.906 378.453 237.891 373.906 239.859 369.906C241.828 365.875 244.609 362.781 248.203 360.625C251.828 358.438 255.953 357.344 260.578 357.344C267.516 357.344 272.969 359.531 276.938 363.906C280.938 368.281 282.938 374.484 282.938 382.516V388.047H250.641C251.078 391.359 252.391 394.016 254.578 396.016C256.797 398.016 259.594 399.016 262.969 399.016C268.188 399.016 272.266 397.125 275.203 393.344L281.859 400.797C279.828 403.672 277.078 405.922 273.609 407.547C270.141 409.141 266.297 409.938 262.078 409.938ZM260.531 368.312C257.844 368.312 255.656 369.219 253.969 371.031C252.312 372.844 251.25 375.438 250.781 378.812H269.625V377.734C269.562 374.734 268.75 372.422 267.188 370.797C265.625 369.141 263.406 368.312 260.531 368.312ZM318.141 394.984C318.141 393.328 317.312 392.031 315.656 391.094C314.031 390.125 311.406 389.266 307.781 388.516C295.719 385.984 289.688 380.859 289.688 373.141C289.688 368.641 291.547 364.891 295.266 361.891C299.016 358.859 303.906 357.344 309.938 357.344C316.375 357.344 321.516 358.859 325.359 361.891C329.234 364.922 331.172 368.859 331.172 373.703H317.625C317.625 371.766 317 370.172 315.75 368.922C314.5 367.641 312.547 367 309.891 367C307.609 367 305.844 367.516 304.594 368.547C303.344 369.578 302.719 370.891 302.719 372.484C302.719 373.984 303.422 375.203 304.828 376.141C306.266 377.047 308.672 377.844 312.047 378.531C315.422 379.188 318.266 379.938 320.578 380.781C327.734 383.406 331.312 387.953 331.312 394.422C331.312 399.047 329.328 402.797 325.359 405.672C321.391 408.516 316.266 409.938 309.984 409.938C305.734 409.938 301.953 409.188 298.641 407.688C295.359 406.156 292.781 404.078 290.906 401.453C289.031 398.797 288.094 395.938 288.094 392.875H300.938C301.062 395.281 301.953 397.125 303.609 398.406C305.266 399.688 307.484 400.328 310.266 400.328C312.859 400.328 314.812 399.844 316.125 398.875C317.469 397.875 318.141 396.578 318.141 394.984ZM367.547 394.984C367.547 393.328 366.719 392.031 365.062 391.094C363.438 390.125 360.812 389.266 357.188 388.516C345.125 385.984 339.094 380.859 339.094 373.141C339.094 368.641 340.953 364.891 344.672 361.891C348.422 358.859 353.312 357.344 359.344 357.344C365.781 357.344 370.922 358.859 374.766 361.891C378.641 364.922 380.578 368.859 380.578 373.703H367.031C367.031 371.766 366.406 370.172 365.156 368.922C363.906 367.641 361.953 367 359.297 367C357.016 367 355.25 367.516 354 368.547C352.75 369.578 352.125 370.891 352.125 372.484C352.125 373.984 352.828 375.203 354.234 376.141C355.672 377.047 358.078 377.844 361.453 378.531C364.828 379.188 367.672 379.938 369.984 380.781C377.141 383.406 380.719 387.953 380.719 394.422C380.719 399.047 378.734 402.797 374.766 405.672C370.797 408.516 365.672 409.938 359.391 409.938C355.141 409.938 351.359 409.188 348.047 407.688C344.766 406.156 342.188 404.078 340.312 401.453C338.438 398.797 337.5 395.938 337.5 392.875H350.344C350.469 395.281 351.359 397.125 353.016 398.406C354.672 399.688 356.891 400.328 359.672 400.328C362.266 400.328 364.219 399.844 365.531 398.875C366.875 397.875 367.547 396.578 367.547 394.984Z"
          fill="" stroke="#fff" stroke-width="5px" class="UHduyhdi_0"></path>
    <style>.UHduyhdi_0{stroke-dasharray:14173 14175;stroke-dashoffset:14174;}.start
        .UHduyhdi_0{animation:UHduyhdi_draw 13500ms ease 0ms forwards;}@keyframes
        UHduyhdi_draw{100%{stroke-dashoffset:0;}}@keyframes
        UHduyhdi_fade{0%{stroke-opacity:1;}97.91666666666667%{stroke-opacity:1;}100%{stroke-opacity:0;}}
    </style>
</svg>
