<svg width="483" height="360" viewBox="0 0 483 360" fill="none" xmlns="http://www.w3.org/2000/svg" class="" style="">
    <path d="M402.113 64.0273L428.445 344.921L24.2974 213.81L402.113 64.0273Z" stroke="#A8B9F1"
          class="VpYxAQPd_0"></path>
    <g class="dots">
        <path transform="rotate(-171.572 427.765 344.765)" fill="#B671AC"
              d="M414.765,344.765A13,13 0,1,1 440.765,344.765A13,13 0,1,1 414.765,344.765" class="VpYxAQPd_1"></path>
        <path transform="rotate(-171.572 427.765 344.765)" fill="#B671AC"
              d="M414.765,344.765A13,13 0,1,1 440.765,344.765A13,13 0,1,1 414.765,344.765" class="VpYxAQPd_2"></path>
        <path transform="rotate(-171.572 427.765 344.765)" fill="#B671AC"
              d="M414.765,344.765A13,13 0,1,1 440.765,344.765A13,13 0,1,1 414.765,344.765" class="VpYxAQPd_3"></path>
    </g>
    <g class="dots">
        <path d="M391.53 62.3263C392.375 56.6231 397.802 52.7024 403.652 53.5691C409.501 54.4359 413.558 59.7619 412.713 65.4651C411.868 71.1683 406.441 75.089 400.591 74.2223C394.742 73.3555 390.685 68.0295 391.53 62.3263Z"
              fill="#B671AC" class="VpYxAQPd_4"></path>
        <path d="M391.53 62.3263C392.375 56.6231 397.802 52.7024 403.652 53.5691C409.501 54.4359 413.558 59.7619 412.713 65.4651C411.868 71.1683 406.441 75.089 400.591 74.2223C394.742 73.3555 390.685 68.0295 391.53 62.3263Z"
              fill="#B671AC" class="VpYxAQPd_5"></path>
        <path d="M391.53 62.3263C392.375 56.6231 397.802 52.7024 403.652 53.5691C409.501 54.4359 413.558 59.7619 412.713 65.4651C411.868 71.1683 406.441 75.089 400.591 74.2223C394.742 73.3555 390.685 68.0295 391.53 62.3263Z"
              fill="#B671AC" class="VpYxAQPd_6"></path>
    </g>
    <g class="dots">
        <path transform="rotate(-171.572 22.3577 213.358)" fill="#B671AC"
              d="M12.357700000000001,213.358A10,10 0,1,1 32.3577,213.358A10,10 0,1,1 12.357700000000001,213.358"
              class="VpYxAQPd_7"></path>
        <path transform="rotate(-171.572 22.3577 213.358)" fill="#B671AC"
              d="M12.357700000000001,213.358A10,10 0,1,1 32.3577,213.358A10,10 0,1,1 12.357700000000001,213.358"
              class="VpYxAQPd_8"></path>
        <path transform="rotate(-171.572 22.3577 213.358)" fill="#B671AC"
              d="M12.357700000000001,213.358A10,10 0,1,1 32.3577,213.358A10,10 0,1,1 12.357700000000001,213.358"
              class="VpYxAQPd_9"></path>
    </g>
    <style>.VpYxAQPd_0{stroke-dasharray:1114 1116;stroke-dashoffset:1115;}.start
        .VpYxAQPd_0{animation:VpYxAQPd_draw 1000ms linear 0ms forwards;}.VpYxAQPd_1{stroke-dasharray:82
        84;stroke-dashoffset:83;}.start .VpYxAQPd_1{animation:VpYxAQPd_draw 1000ms linear 55ms
        forwards;}.VpYxAQPd_2{stroke-dasharray:82 84;stroke-dashoffset:83;}.start .VpYxAQPd_2{animation:VpYxAQPd_draw
        1000ms linear 111ms forwards;}.VpYxAQPd_3{stroke-dasharray:82 84;stroke-dashoffset:83;}.start
        .VpYxAQPd_3{animation:VpYxAQPd_draw 1000ms linear 166ms forwards;}.VpYxAQPd_4{stroke-dasharray:67
        69;stroke-dashoffset:68;}.start .VpYxAQPd_4{animation:VpYxAQPd_draw 1000ms linear 222ms
        forwards;}.VpYxAQPd_5{stroke-dasharray:67 69;stroke-dashoffset:68;}.start .VpYxAQPd_5{animation:VpYxAQPd_draw
        1000ms linear 277ms forwards;}.VpYxAQPd_6{stroke-dasharray:67 69;stroke-dashoffset:68;}.start
        .VpYxAQPd_6{animation:VpYxAQPd_draw 1000ms linear 333ms forwards;}.VpYxAQPd_7{stroke-dasharray:63
        65;stroke-dashoffset:64;}.start .VpYxAQPd_7{animation:VpYxAQPd_draw 1000ms linear 388ms
        forwards;}.VpYxAQPd_8{stroke-dasharray:63 65;stroke-dashoffset:64;}.start .VpYxAQPd_8{animation:VpYxAQPd_draw
        1000ms linear 444ms forwards;}.VpYxAQPd_9{stroke-dasharray:63 65;stroke-dashoffset:64;}.start
        .VpYxAQPd_9{animation:VpYxAQPd_draw 1000ms linear 500ms forwards;}@keyframes
        VpYxAQPd_draw{100%{stroke-dashoffset:0;}}@keyframes
        VpYxAQPd_fade{0%{stroke-opacity:1;}92.98245614035088%{stroke-opacity:1;}100%{stroke-opacity:0;}}
    </style>
</svg>
