<svg width="24" height="27" viewBox="0 0 24 27" fill="none" xmlns="http://www.w3.org/2000/svg">
    <path opacity="0.75" fill-rule="evenodd" clip-rule="evenodd"
          d="M24 3.33333C24 5.17428 22.5076 6.66667 20.6667 6.66667C19.7324 6.66667 18.8878 6.28227 18.2826 5.663L6.51885 13.0153C6.61493 13.3266 6.66667 13.6572 6.66667 14C6.66667 14.381 6.60274 14.7471 6.48502 15.0881L18.068 21.2455C18.679 20.486 19.6161 20 20.6667 20C22.5076 20 24 21.4924 24 23.3333C24 25.1743 22.5076 26.6667 20.6667 26.6667C18.8257 26.6667 17.3333 25.1743 17.3333 23.3333C17.3333 22.9016 17.4154 22.4891 17.5648 22.1105L6.01999 15.9734C5.41318 16.7982 4.43576 17.3333 3.33333 17.3333C1.49238 17.3333 0 15.8409 0 14C0 12.1591 1.49238 10.6667 3.33333 10.6667C4.47273 10.6667 5.47861 11.2383 6.07979 12.1105L17.6973 4.84954C17.4646 4.3947 17.3333 3.87935 17.3333 3.33333C17.3333 1.49238 18.8257 0 20.6667 0C22.5076 0 24 1.49238 24 3.33333Z"
          fill="white"/>
</svg>
