<svg width="40" height="51" viewBox="0 0 40 51" fill="none" xmlns="http://www.w3.org/2000/svg">
<path d="M17.9446 49.971C2.80938 28.9894 0 26.8361 0 19.125C0 8.56252 8.95427 0 20 0C31.0457 0 40 8.56252 40 19.125C40 26.8361 37.1906 28.9894 22.0554 49.971C21.0622 51.343 18.9377 51.3429 17.9446 49.971ZM20 27.0937C24.6024 27.0937 28.3333 23.526 28.3333 19.125C28.3333 14.724 24.6024 11.1562 20 11.1562C15.3976 11.1562 11.6667 14.724 11.6667 19.125C11.6667 23.526 15.3976 27.0937 20 27.0937Z" fill="white"/>
</svg>
